<mxfile host="app.diagrams.net" agent="Mozilla/5.0 (Windows NT 10.0; Win64; x64) AppleWebKit/537.36 (KHTML, like Gecko) Chrome/130.0.0.0 Safari/537.36" version="24.8.6">
  <diagram name="Página-1" id="dw75eFYcRkrUz4xuSaDK">
    <mxGraphModel dx="1235" dy="655" grid="1" gridSize="10" guides="1" tooltips="1" connect="1" arrows="1" fold="1" page="1" pageScale="1" pageWidth="1654" pageHeight="2336" math="0" shadow="0">
      <root>
        <mxCell id="0" />
        <mxCell id="1" parent="0" />
        <mxCell id="YZUXlJjarUffFJBtJfE9-5" style="rounded=0;orthogonalLoop=1;jettySize=auto;html=1;exitX=0;exitY=0;exitDx=0;exitDy=0;entryX=0;entryY=0.5;entryDx=0;entryDy=0;strokeColor=default;endArrow=none;endFill=0;" edge="1" parent="1" source="YZUXlJjarUffFJBtJfE9-36" target="YZUXlJjarUffFJBtJfE9-4">
          <mxGeometry relative="1" as="geometry" />
        </mxCell>
        <mxCell id="YZUXlJjarUffFJBtJfE9-20" style="rounded=0;orthogonalLoop=1;jettySize=auto;html=1;exitX=1;exitY=1;exitDx=0;exitDy=0;exitPerimeter=0;entryX=0;entryY=0.5;entryDx=0;entryDy=0;endArrow=none;endFill=0;" edge="1" parent="1" source="YZUXlJjarUffFJBtJfE9-1" target="YZUXlJjarUffFJBtJfE9-15">
          <mxGeometry relative="1" as="geometry" />
        </mxCell>
        <mxCell id="YZUXlJjarUffFJBtJfE9-22" style="rounded=0;orthogonalLoop=1;jettySize=auto;html=1;exitX=1;exitY=1;exitDx=0;exitDy=0;exitPerimeter=0;entryX=0;entryY=0;entryDx=0;entryDy=0;endArrow=none;endFill=0;" edge="1" parent="1" source="YZUXlJjarUffFJBtJfE9-1" target="YZUXlJjarUffFJBtJfE9-19">
          <mxGeometry relative="1" as="geometry" />
        </mxCell>
        <mxCell id="YZUXlJjarUffFJBtJfE9-1" value="Cliente" style="shape=umlActor;verticalLabelPosition=bottom;verticalAlign=top;html=1;outlineConnect=0;" vertex="1" parent="1">
          <mxGeometry x="110" y="910" width="30" height="60" as="geometry" />
        </mxCell>
        <mxCell id="YZUXlJjarUffFJBtJfE9-2" value="ProgramArte LDA." style="shape=umlFrame;whiteSpace=wrap;html=1;pointerEvents=0;width=140;height=50;" vertex="1" parent="1">
          <mxGeometry x="200" y="800" width="490" height="530" as="geometry" />
        </mxCell>
        <mxCell id="YZUXlJjarUffFJBtJfE9-31" style="rounded=0;orthogonalLoop=1;jettySize=auto;html=1;exitX=0;exitY=1;exitDx=0;exitDy=0;exitPerimeter=0;entryX=1;entryY=0.5;entryDx=0;entryDy=0;endArrow=none;endFill=0;" edge="1" parent="1" source="YZUXlJjarUffFJBtJfE9-3" target="YZUXlJjarUffFJBtJfE9-29">
          <mxGeometry relative="1" as="geometry" />
        </mxCell>
        <mxCell id="YZUXlJjarUffFJBtJfE9-33" style="rounded=0;orthogonalLoop=1;jettySize=auto;html=1;exitX=0;exitY=1;exitDx=0;exitDy=0;exitPerimeter=0;entryX=1;entryY=0.5;entryDx=0;entryDy=0;endArrow=none;endFill=0;" edge="1" parent="1" source="YZUXlJjarUffFJBtJfE9-3" target="YZUXlJjarUffFJBtJfE9-32">
          <mxGeometry relative="1" as="geometry" />
        </mxCell>
        <mxCell id="YZUXlJjarUffFJBtJfE9-42" style="rounded=0;orthogonalLoop=1;jettySize=auto;html=1;exitX=0;exitY=1;exitDx=0;exitDy=0;exitPerimeter=0;entryX=1;entryY=0.5;entryDx=0;entryDy=0;endArrow=none;endFill=0;" edge="1" parent="1" source="YZUXlJjarUffFJBtJfE9-3" target="YZUXlJjarUffFJBtJfE9-41">
          <mxGeometry relative="1" as="geometry" />
        </mxCell>
        <mxCell id="YZUXlJjarUffFJBtJfE9-3" value="Sr. Arménio Puga" style="shape=umlActor;verticalLabelPosition=bottom;verticalAlign=top;html=1;" vertex="1" parent="1">
          <mxGeometry x="710" y="810" width="30" height="60" as="geometry" />
        </mxCell>
        <mxCell id="YZUXlJjarUffFJBtJfE9-47" style="rounded=0;orthogonalLoop=1;jettySize=auto;html=1;exitX=1;exitY=0;exitDx=0;exitDy=0;endArrow=none;endFill=0;" edge="1" parent="1" source="YZUXlJjarUffFJBtJfE9-4" target="YZUXlJjarUffFJBtJfE9-25">
          <mxGeometry relative="1" as="geometry" />
        </mxCell>
        <mxCell id="YZUXlJjarUffFJBtJfE9-4" value="Reservar Maquina" style="ellipse;whiteSpace=wrap;html=1;" vertex="1" parent="1">
          <mxGeometry x="220" y="920" width="70" height="40" as="geometry" />
        </mxCell>
        <mxCell id="YZUXlJjarUffFJBtJfE9-12" value="Gerir Reservas" style="ellipse;whiteSpace=wrap;html=1;" vertex="1" parent="1">
          <mxGeometry x="440" y="970" width="70" height="40" as="geometry" />
        </mxCell>
        <mxCell id="YZUXlJjarUffFJBtJfE9-15" value="Registo" style="ellipse;whiteSpace=wrap;html=1;" vertex="1" parent="1">
          <mxGeometry x="250" y="1190" width="70" height="40" as="geometry" />
        </mxCell>
        <mxCell id="YZUXlJjarUffFJBtJfE9-16" value="Analisar&lt;br&gt;Tempo&lt;br&gt;Máquinas" style="ellipse;whiteSpace=wrap;html=1;" vertex="1" parent="1">
          <mxGeometry x="255" y="1050" width="85" height="50" as="geometry" />
        </mxCell>
        <mxCell id="YZUXlJjarUffFJBtJfE9-19" value="Efetuar Feedback" style="ellipse;whiteSpace=wrap;html=1;" vertex="1" parent="1">
          <mxGeometry x="260" y="1120" width="70" height="40" as="geometry" />
        </mxCell>
        <mxCell id="YZUXlJjarUffFJBtJfE9-23" style="rounded=0;orthogonalLoop=1;jettySize=auto;html=1;exitX=1;exitY=1;exitDx=0;exitDy=0;exitPerimeter=0;endArrow=none;endFill=0;" edge="1" parent="1" source="YZUXlJjarUffFJBtJfE9-1" target="YZUXlJjarUffFJBtJfE9-16">
          <mxGeometry relative="1" as="geometry">
            <mxPoint x="160" y="970" as="sourcePoint" />
            <mxPoint x="280" y="1134" as="targetPoint" />
          </mxGeometry>
        </mxCell>
        <mxCell id="YZUXlJjarUffFJBtJfE9-25" value="Pagamentos" style="ellipse;whiteSpace=wrap;html=1;" vertex="1" parent="1">
          <mxGeometry x="260" y="860" width="70" height="40" as="geometry" />
        </mxCell>
        <mxCell id="YZUXlJjarUffFJBtJfE9-39" style="rounded=0;orthogonalLoop=1;jettySize=auto;html=1;exitX=0;exitY=0;exitDx=0;exitDy=0;entryX=1;entryY=1;entryDx=0;entryDy=0;dashed=1;" edge="1" parent="1" source="YZUXlJjarUffFJBtJfE9-29" target="YZUXlJjarUffFJBtJfE9-38">
          <mxGeometry relative="1" as="geometry" />
        </mxCell>
        <mxCell id="YZUXlJjarUffFJBtJfE9-44" value="&amp;lt;&amp;lt;include&amp;gt;&amp;gt;" style="edgeLabel;html=1;align=center;verticalAlign=middle;resizable=0;points=[];" vertex="1" connectable="0" parent="YZUXlJjarUffFJBtJfE9-39">
          <mxGeometry x="0.0319" y="2" relative="1" as="geometry">
            <mxPoint x="29" y="-22" as="offset" />
          </mxGeometry>
        </mxCell>
        <mxCell id="YZUXlJjarUffFJBtJfE9-29" value="Gerir Pagamentos" style="ellipse;whiteSpace=wrap;html=1;" vertex="1" parent="1">
          <mxGeometry x="540" y="900" width="80" height="40" as="geometry" />
        </mxCell>
        <mxCell id="YZUXlJjarUffFJBtJfE9-48" style="rounded=0;orthogonalLoop=1;jettySize=auto;html=1;exitX=0;exitY=0.5;exitDx=0;exitDy=0;entryX=1;entryY=0.5;entryDx=0;entryDy=0;endArrow=none;endFill=0;dashed=1;" edge="1" parent="1" source="YZUXlJjarUffFJBtJfE9-32" target="YZUXlJjarUffFJBtJfE9-12">
          <mxGeometry relative="1" as="geometry" />
        </mxCell>
        <mxCell id="YZUXlJjarUffFJBtJfE9-50" value="&amp;lt;&amp;lt;include&amp;gt;&amp;gt;" style="edgeLabel;html=1;align=center;verticalAlign=middle;resizable=0;points=[];" vertex="1" connectable="0" parent="YZUXlJjarUffFJBtJfE9-48">
          <mxGeometry x="0.2504" y="-3" relative="1" as="geometry">
            <mxPoint x="32" y="-14" as="offset" />
          </mxGeometry>
        </mxCell>
        <mxCell id="YZUXlJjarUffFJBtJfE9-32" value="Consultar Lavandarias" style="ellipse;whiteSpace=wrap;html=1;" vertex="1" parent="1">
          <mxGeometry x="560" y="990" width="70" height="40" as="geometry" />
        </mxCell>
        <mxCell id="YZUXlJjarUffFJBtJfE9-34" value="Gerir Estado&amp;nbsp; Máquinas" style="ellipse;whiteSpace=wrap;html=1;" vertex="1" parent="1">
          <mxGeometry x="440" y="1045" width="70" height="40" as="geometry" />
        </mxCell>
        <mxCell id="YZUXlJjarUffFJBtJfE9-35" style="rounded=0;orthogonalLoop=1;jettySize=auto;html=1;entryX=1;entryY=0.5;entryDx=0;entryDy=0;endArrow=none;endFill=0;exitX=0;exitY=0.5;exitDx=0;exitDy=0;dashed=1;" edge="1" parent="1" source="YZUXlJjarUffFJBtJfE9-32" target="YZUXlJjarUffFJBtJfE9-34">
          <mxGeometry relative="1" as="geometry">
            <mxPoint x="630" y="880" as="sourcePoint" />
            <mxPoint x="535" y="1050" as="targetPoint" />
          </mxGeometry>
        </mxCell>
        <mxCell id="YZUXlJjarUffFJBtJfE9-51" value="&amp;lt;&amp;lt;include&amp;gt;&amp;gt;" style="edgeLabel;html=1;align=center;verticalAlign=middle;resizable=0;points=[];" vertex="1" connectable="0" parent="YZUXlJjarUffFJBtJfE9-35">
          <mxGeometry x="0.216" y="1" relative="1" as="geometry">
            <mxPoint x="26" y="5" as="offset" />
          </mxGeometry>
        </mxCell>
        <mxCell id="YZUXlJjarUffFJBtJfE9-36" value="Listar&lt;br&gt;Lavandarias" style="ellipse;whiteSpace=wrap;html=1;" vertex="1" parent="1">
          <mxGeometry x="260" y="980" width="70" height="40" as="geometry" />
        </mxCell>
        <mxCell id="YZUXlJjarUffFJBtJfE9-37" style="rounded=0;orthogonalLoop=1;jettySize=auto;html=1;exitX=1;exitY=1;exitDx=0;exitDy=0;exitPerimeter=0;entryX=0;entryY=0.5;entryDx=0;entryDy=0;strokeColor=default;endArrow=none;endFill=0;" edge="1" parent="1" source="YZUXlJjarUffFJBtJfE9-1" target="YZUXlJjarUffFJBtJfE9-36">
          <mxGeometry relative="1" as="geometry">
            <mxPoint x="150" y="980" as="sourcePoint" />
            <mxPoint x="265" y="950" as="targetPoint" />
          </mxGeometry>
        </mxCell>
        <mxCell id="YZUXlJjarUffFJBtJfE9-38" value="Emitir&amp;nbsp;&lt;br&gt;Fatura" style="ellipse;whiteSpace=wrap;html=1;" vertex="1" parent="1">
          <mxGeometry x="350" y="900" width="80" height="40" as="geometry" />
        </mxCell>
        <mxCell id="YZUXlJjarUffFJBtJfE9-41" value="Consultar Feedback" style="ellipse;whiteSpace=wrap;html=1;" vertex="1" parent="1">
          <mxGeometry x="550" y="1140" width="70" height="40" as="geometry" />
        </mxCell>
        <mxCell id="YZUXlJjarUffFJBtJfE9-45" style="rounded=0;orthogonalLoop=1;jettySize=auto;html=1;exitX=1;exitY=0.5;exitDx=0;exitDy=0;entryX=0.26;entryY=0.145;entryDx=0;entryDy=0;entryPerimeter=0;endArrow=none;endFill=0;dashed=1;startArrow=classic;startFill=1;strokeColor=#000000;" edge="1" parent="1" source="YZUXlJjarUffFJBtJfE9-25" target="YZUXlJjarUffFJBtJfE9-38">
          <mxGeometry relative="1" as="geometry" />
        </mxCell>
        <mxCell id="YZUXlJjarUffFJBtJfE9-46" value="&amp;lt;&amp;lt;extends&amp;gt;&amp;gt;" style="edgeLabel;html=1;align=center;verticalAlign=middle;resizable=0;points=[];" vertex="1" connectable="0" parent="YZUXlJjarUffFJBtJfE9-45">
          <mxGeometry x="-0.1726" relative="1" as="geometry">
            <mxPoint x="23" y="-11" as="offset" />
          </mxGeometry>
        </mxCell>
      </root>
    </mxGraphModel>
  </diagram>
</mxfile>
